# This file uses centimeters as units for non-parametric coordinates.

mtllib Hojitas_1.mtl
g default
v -10.201272 3.778146 6.303648
v -10.321914 3.639130 6.406868
v -10.558622 3.343420 6.480652
v -10.055371 3.936481 6.000000
v -10.253320 3.724731 5.999989
v -10.536748 3.379959 6.000042
v -10.201272 3.778146 5.696350
v -10.321914 3.639130 5.593130
v -10.558622 3.343420 5.519346
v -11.068089 2.533263 6.294605
v -10.931466 2.767587 6.406868
v -10.717637 3.123102 6.480652
v -11.191026 2.308150 6.000000
v -11.021332 2.615326 6.000006
v -10.756189 3.058462 6.000065
v -11.068089 2.533263 5.705395
v -10.931466 2.767587 5.593130
v -10.717637 3.123102 5.519348
v -10.078149 3.912454 6.073540
v -10.270261 3.704810 6.174345
v -10.541695 3.372589 6.234320
v -10.747074 3.073204 6.233454
v -11.004071 2.644274 6.161633
v -11.191026 2.308150 6.026154
v -10.078149 3.912454 5.926460
v -10.269956 3.704426 5.825684
v -10.541525 3.372414 5.765760
v -10.747315 3.073295 5.766623
v -11.003902 2.644177 5.838383
v -11.191026 2.308150 5.973845
v -11.955450 0.022953 6.000000
v -11.955450 0.022953 5.973845
v -11.955450 0.022953 6.026154
v -11.676805 1.232273 6.000000
v -11.676805 1.232273 5.973845
v -11.676805 1.232273 6.026154
v -11.447404 1.783509 6.000000
v -11.447404 1.783509 5.973845
v -11.447404 1.783509 6.026154
v -11.847538 0.654568 6.000000
v -11.847538 0.654568 6.026154
v -11.847538 0.654568 5.973845
v -11.328975 2.049893 6.000000
v -11.328975 2.049893 5.973845
v -11.328975 2.049893 6.026154
v -11.563585 1.516020 6.000000
v -11.563585 1.516020 6.026154
v -11.563585 1.516020 5.973845
v -11.775718 0.945437 6.000000
v -11.775718 0.945437 5.973845
v -11.775718 0.945437 6.026154
v -11.905387 0.347073 6.000000
v -11.905387 0.347073 6.026154
v -11.905387 0.347073 5.973845
vt 0.213530 0.906431
vt 0.190345 0.947789
vt 0.138649 0.988722
vt 0.161298 0.925186
vt 0.174777 0.828836
vt 0.230109 0.821337
vt 0.122128 0.996155
vt 0.122136 0.931052
vt 0.122162 0.830815
vt 0.030755 0.906404
vt 0.082987 0.925153
vt 0.105609 0.988716
vt 0.053927 0.947766
vt 0.014199 0.821307
vt 0.069548 0.828814
vt 0.158483 0.634979
vt 0.122182 0.627406
vt 0.122191 0.548586
vt 0.128065 0.548586
vt 0.122179 0.743393
vt 0.174604 0.747292
vt 0.030788 0.667100
vt 0.056011 0.606184
vt 0.116316 0.548585
vt 0.085879 0.634970
vt 0.014194 0.760274
vt 0.069741 0.747267
vt 0.230131 0.760303
vt 0.213561 0.667125
vt 0.188355 0.606202
vt 0.122235 0.215078
vt 0.116360 0.215077
vt 0.116369 0.147784
vt 0.122244 0.147785
vt 0.128109 0.215079
vt 0.128118 0.147786
vt 0.122208 0.417345
vt 0.116333 0.417344
vt 0.116342 0.351843
vt 0.122217 0.351843
vt 0.128082 0.417346
vt 0.128091 0.351844
vt 0.122199 0.482823
vt 0.116325 0.482822
vt 0.128074 0.482824
vt 0.122253 0.077508
vt 0.128127 0.077509
vt 0.116378 0.077507
vt 0.122226 0.283226
vt 0.128100 0.283227
vt 0.116351 0.283225
vt 0.122263 0.003846
vt 0.128137 0.003846
vt 0.116388 0.003845
vn -0.771216 0.636429 0.013611
vn -0.738875 0.673733 0.012110
vn -0.733395 0.679781 0.005453
vn -0.762435 0.647026 0.007062
vn -0.797469 0.603350 0.003434
vn -0.799408 0.600771 0.004614
vn -0.732001 0.681303 -0.000918
vn -0.760528 0.649305 -0.000906
vn -0.799172 0.601102 -0.000455
vn -0.771365 0.636279 -0.012024
vn -0.762652 0.646770 -0.007097
vn -0.733966 0.679156 -0.006397
vn -0.740237 0.672273 -0.009917
vn -0.799147 0.601123 -0.003910
vn -0.797215 0.603686 -0.003360
vn -0.862532 0.506000 -0.001671
vn -0.863370 0.504571 -0.000125
vn -0.876402 0.481580 -0.000418
vn -0.874259 0.485454 0.002235
vn -0.843783 0.536685 0.000032
vn -0.843102 0.537749 -0.002112
vn -0.858972 0.512010 0.003604
vn -0.868546 0.495574 0.005893
vn -0.874154 0.485642 -0.002633
vn -0.862577 0.505923 0.001833
vn -0.837041 0.547130 0.003311
vn -0.843099 0.537755 0.002027
vn -0.837132 0.546990 -0.003459
vn -0.858776 0.512337 -0.003775
vn -0.868858 0.495036 -0.005025
vn -0.958995 0.283424 0.000000
vn -0.958996 0.283421 0.000000
vn -0.977315 0.211793 0.000000
vn -0.977315 0.211792 0.000000
vn -0.958994 0.283426 0.000000
vn -0.977315 0.211791 0.000000
vn -0.915499 0.402321 0.000000
vn -0.915496 0.402328 0.000000
vn -0.923242 0.384219 0.000000
vn -0.923242 0.384218 0.000000
vn -0.915501 0.402315 0.000000
vn -0.923243 0.384217 0.000000
vn -0.898461 0.439053 0.000000
vn -0.898458 0.439060 0.000000
vn -0.898464 0.439047 0.000000
vn -0.985717 0.168411 0.000000
vn -0.985717 0.168410 0.000000
vn -0.985717 0.168413 0.000000
vn -0.937315 0.348483 0.000000
vn -0.937316 0.348482 0.000000
vn -0.937315 0.348484 0.000000
vn -0.988281 0.152648 0.000000
vn -0.988280 0.152651 0.000000
vn -0.988281 0.152645 0.000000
s 1
g HojaA_1
usemtl initialShadingGroup
f 2/1/1 1/2/2 19/3/3 20/4/4
f 20/4/4 21/5/5 3/6/6 2/1/1
f 19/3/3 4/7/7 5/8/8 20/4/4
f 5/8/8 6/9/9 21/5/5 20/4/4
f 8/10/10 26/11/11 25/12/12 7/13/13
f 8/10/10 9/14/14 27/15/15 26/11/11
f 23/16/16 14/17/17 13/18/18 24/19/19
f 15/20/20 14/17/17 23/16/16 22/21/21
f 6/9/9 15/20/20 22/21/21 21/5/5
f 17/22/22 16/23/23 30/24/24 29/25/25
f 18/26/26 17/22/22 29/25/25 28/27/27
f 9/14/14 18/26/26 28/27/27 27/15/15
f 21/5/5 22/21/21 12/28/28 3/6/6
f 22/21/21 23/16/16 11/29/29 12/28/28
f 11/29/29 23/16/16 24/19/19 10/30/30
f 4/7/7 25/12/12 26/11/11 5/8/8
f 26/11/11 27/15/15 6/9/9 5/8/8
f 27/15/15 28/27/27 15/20/20 6/9/9
f 28/27/27 29/25/25 14/17/17 15/20/20
f 13/18/18 14/17/17 29/25/25 30/24/24
f 49/31/31 50/32/32 42/33/33 40/34/34
f 51/35/35 49/31/31 40/34/34 41/36/36
f 37/37/37 38/38/38 48/39/39 46/40/40
f 39/41/41 37/37/37 46/40/40 47/42/42
f 43/43/43 44/44/44 38/38/38 37/37/37
f 45/45/45 43/43/43 37/37/37 39/41/41
f 41/36/36 40/34/34 52/46/46 53/47/47
f 40/34/34 42/33/33 54/48/48 52/46/46
f 30/24/24 44/44/44 43/43/43 13/18/18
f 13/18/18 43/43/43 45/45/45 24/19/19
f 47/42/42 46/40/40 34/49/49 36/50/50
f 46/40/40 48/39/39 35/51/51 34/49/49
f 34/49/49 35/51/51 50/32/32 49/31/31
f 36/50/50 34/49/49 49/31/31 51/35/35
f 53/47/47 52/46/46 31/52/52 33/53/53
f 52/46/46 54/48/48 32/54/54 31/52/52
g default
v -8.974535 1.624235 8.155360
v -8.490306 1.634761 8.086911
v -8.974535 1.624235 7.844640
v -8.490306 1.634761 7.913089
v -10.311400 1.203198 8.289383
v -9.542971 1.476872 8.219531
v -10.311400 1.203198 7.710618
v -9.542971 1.476872 7.780469
v -11.932497 0.000000 8.158285
v -11.532478 0.476905 8.341779
v -11.932497 0.000000 7.841716
v -11.532478 0.476905 7.658221
v -11.006148 0.876893 8.354910
v -11.006148 0.876893 7.645090
v -11.932497 0.000000 8.000000
v -11.532478 0.476905 8.000000
v -11.006148 0.876893 8.000000
v -10.311400 1.203198 8.000000
v -9.542971 1.476872 8.000000
v -8.974535 1.624235 8.000000
v -8.188711 1.634761 8.000000
vt 0.324101 0.799642
vt 0.324089 0.976161
vt 0.304552 0.908425
vt 0.289206 0.799636
vt 0.324124 0.484531
vt 0.324111 0.667745
vt 0.274803 0.667741
vt 0.259127 0.484526
vt 0.324158 0.023842
vt 0.324148 0.163650
vt 0.247381 0.163644
vt 0.288606 0.023839
vt 0.324137 0.312131
vt 0.244421 0.312125
vt 0.359710 0.023844
vt 0.400914 0.163655
vt 0.403852 0.312137
vt 0.389122 0.484535
vt 0.373419 0.667748
vt 0.358997 0.799641
vt 0.343635 0.908428
vn -0.159973 0.987121 0.000000
vn -0.017765 0.999842 0.000000
vn -0.017761 0.999598 0.022109
vn -0.168763 0.985625 0.007946
vn -0.384672 0.923053 0.000000
vn -0.306474 0.951879 0.000000
vn -0.308806 0.951125 0.000000
vn -0.387073 0.922049 0.000000
vn -0.766165 0.642644 0.000000
vn -0.674061 0.738675 0.000000
vn -0.665707 0.746213 0.000000
vn -0.766165 0.642644 0.000000
vn -0.514742 0.857345 0.000000
vn -0.516690 0.856173 0.000000
vn -0.766166 0.642643 0.000000
vn -0.665708 0.746212 0.000000
vn -0.516690 0.856173 0.000000
vn -0.387073 0.922049 0.000000
vn -0.308807 0.951125 0.000000
vn -0.168763 0.985625 -0.007946
vn -0.017761 0.999598 -0.022109
s 1
g HojaB_1
usemtl initialShadingGroup
f 74/55/55 75/56/56 58/57/57 57/58/58
f 72/59/59 73/60/60 62/61/61 61/62/62
f 73/60/60 74/55/55 57/58/58 62/61/61
f 69/63/63 70/64/64 66/65/65 65/66/66
f 70/64/64 71/67/67 68/68/68 66/65/65
f 71/67/67 72/59/59 61/62/62 68/68/68
f 63/69/69 64/70/70 70/64/64 69/63/63
f 64/70/70 67/71/71 71/67/67 70/64/64
f 67/71/71 59/72/72 72/59/59 71/67/67
f 59/72/72 60/73/73 73/60/60 72/59/59
f 60/73/73 55/74/74 74/55/55 73/60/60
f 55/74/74 56/75/75 75/56/56 74/55/55
